<svg xmlns="http://www.w3.org/2000/svg" version="1.1" xmlns:xlink="http://www.w3.org/1999/xlink" xmlns:svgjs="http://svgjs.com/svgjs" width="50" height="50" x="0" y="0" viewBox="0 0 64 64" style="enable-background:new 0 0 512 512" xml:space="preserve" class=""><g><g xmlns="http://www.w3.org/2000/svg"><g><g><path d="m49.89 34c-.77 6.96-5.5 12.72-11.89 14.98-1.88.66-3.9 1.02-6 1.02-9.26 0-16.89-7-17.89-16-.07-.66-.11-1.32-.11-2s.04-1.34.11-2c1-9 8.63-16 17.89-16 4.72 0 9.01 1.81 12.22 4.79 3.09 2.85 5.18 6.79 5.67 11.21.07.66.11 1.32.11 2s-.04 1.34-.11 2z" fill="#fcd770" data-original="#fcd770"></path></g><g><path d="m32 18c7.73 0 14 6.27 14 14s-6.27 14-14 14-14-6.27-14-14 6.27-14 14-14z" fill="#ffeaa7" data-original="#ffeaa7" class=""></path></g><g><path d="m16 44v16c0 1.1-.9 2-2 2h-10c-1.1 0-2-.9-2-2v-16c0-1.1.9-2 2-2h6 4c1.1 0 2 .9 2 2z" fill="#969faa" data-original="#969faa"></path></g><g><path d="m62 44v2h-14v-2c0-1.1.9-2 2-2h4 6c1.1 0 2 .9 2 2z" fill="#969faa" data-original="#969faa"></path></g><g><path d="m62 58v2c0 1.1-.9 2-2 2h-10c-1.1 0-2-.9-2-2v-2z" fill="#969faa" data-original="#969faa"></path></g><g><path d="m61.7 16.6c.19.26.3.58.3.9 0 .83-.67 1.5-1.5 1.5h-6.5-1-7.5l-1.06-.44c-.27-.27-.44-.64-.44-1.06 0-.32.11-.64.3-.9l1.95-2.6h13.5z" fill="#969faa" data-original="#969faa"></path></g><g><path d="m60 4v10h-.25-13.5-.25v-10c0-1.1.9-2 2-2h10c1.1 0 2 .9 2 2z" fill="#ccd1d9" data-original="#ccd1d9"></path></g><g><path d="m14.69 18.76c.16.63-.32 1.24-.97 1.24h-3.72-3.72c-.65 0-1.13-.61-.97-1.24l.69-2.76h8z" fill="#aab2bd" data-original="#aab2bd" class=""></path></g><g><path d="m18 12v2c0 1.1-.9 2-2 2h-2-8-2c-1.1 0-2-.9-2-2v-2z" fill="#ccd1d9" data-original="#ccd1d9"></path></g><g><path d="m18 4v8h-16v-8c0-1.1.9-2 2-2h12c1.1 0 2 .9 2 2z" fill="#69d6f4" data-original="#69d6f4"></path></g><g><path d="m50 6h6v4h-6z" fill="#69d6f4" data-original="#69d6f4"></path></g><g><path d="m48 46h14v12h-14z" fill="#69d6f4" data-original="#69d6f4"></path></g><g><path d="m6 46h6v8h-6z" fill="#69d6f4" data-original="#69d6f4"></path></g><g><path d="m28 28h8 1c.55 0 1 .45 1 1v10c0 .55-.45 1-1 1h-10c-.55 0-1-.45-1-1v-10c0-.55.45-1 1-1z" fill="#aab2bd" data-original="#aab2bd" class=""></path></g><g><circle cx="32" cy="33" fill="#b4dd7f" r="2" data-original="#b4dd7f"></circle></g><g><circle cx="38" cy="54" fill="#ff826e" r="2" data-original="#ff826e"></circle></g><g><circle cx="32" cy="60" fill="#ff826e" r="2" data-original="#ff826e"></circle></g><g><circle cx="24" cy="56" fill="#ff826e" r="2" data-original="#ff826e"></circle></g><g><circle cx="38" cy="10" fill="#ff826e" r="2" data-original="#ff826e"></circle></g><g><circle cx="32" cy="4" fill="#ff826e" r="2" data-original="#ff826e"></circle></g><g><circle cx="24" cy="8" fill="#ff826e" r="2" data-original="#ff826e"></circle></g></g><g><path d="m32 17c-8.271 0-15 6.729-15 15s6.729 15 15 15 15-6.729 15-15-6.729-15-15-15zm0 28c-7.168 0-13-5.832-13-13s5.832-13 13-13 13 5.832 13 13-5.832 13-13 13z" fill="#000000" data-original="#000000" class=""></path><path d="m37 27v-1c0-2.757-2.243-5-5-5s-5 2.243-5 5v1c-1.103 0-2 .897-2 2v10c0 1.103.897 2 2 2h10c1.103 0 2-.897 2-2v-10c0-1.103-.897-2-2-2zm-8-1c0-1.654 1.346-3 3-3s3 1.346 3 3v1h-6zm-2 13v-10h10l.001 10z" fill="#000000" data-original="#000000" class=""></path><path d="m32 30c-1.654 0-3 1.346-3 3 0 1.302.839 2.402 2 2.816v2.184h2v-2.184c1.161-.414 2-1.514 2-2.816 0-1.654-1.346-3-3-3zm0 4c-.552 0-1-.449-1-1s.448-1 1-1 1 .449 1 1-.448 1-1 1z" fill="#000000" data-original="#000000" class=""></path><path d="m49 11h8v-6h-8zm2-4h4v2h-4z" fill="#000000" data-original="#000000" class=""></path><path d="m5 55h8v-10h-8zm2-8h4v6h-4z" fill="#000000" data-original="#000000" class=""></path><path d="m7 57h4v2h-4z" fill="#000000" data-original="#000000" class=""></path><path d="m60 41h-5v-8h-4.051c.018-.333.051-.662.051-1s-.033-.667-.051-1h4.051v-11h5.5c1.379 0 2.5-1.122 2.5-2.5 0-.537-.177-1.069-.5-1.5l-1.5-2v-10c0-1.654-1.346-3-3-3h-10c-1.654 0-3 1.346-3 3v10l-1.501 2.001c-.148.198-.262.419-.345.651-1.276-.93-2.666-1.706-4.154-2.299v-1.537c1.161-.414 2-1.514 2-2.816 0-1.654-1.346-3-3-3s-3 1.346-3 3c0 1.302.839 2.402 2 2.816v.874c-1.285-.352-2.622-.567-4-.639v-6.235c1.161-.414 2-1.514 2-2.816 0-1.654-1.346-3-3-3s-3 1.346-3 3c0 1.302.839 2.402 2 2.816v6.235c-2.109.111-4.127.557-6 1.302v-3.537c1.161-.414 2-1.514 2-2.816 0-1.654-1.346-3-3-3s-3 1.346-3 3c0 1.302.839 2.402 2 2.816v4.457c-5.106 2.758-8.791 7.791-9.739 13.727h-2.261v-8h2.719c.62 0 1.194-.28 1.576-.769s.515-1.114.364-1.717l-.379-1.514h.72c1.654 0 3-1.346 3-3v-10c0-1.654-1.346-3-3-3h-12c-1.654 0-3 1.346-3 3v10c0 1.654 1.346 3 3 3h.719l-.379 1.516c-.149.602-.017 1.228.365 1.716s.956.768 1.576.768h2.719v10h4.051c-.018.333-.051.662-.051 1s.033.667.051 1h-4.051v8h-5c-1.654 0-3 1.346-3 3v16c0 1.654 1.346 3 3 3h10c1.654 0 3-1.346 3-3v-16c0-.151-.023-.296-.045-.441 1.63 2.116 3.68 3.89 6.045 5.168v4.457c-1.161.414-2 1.514-2 2.816 0 1.654 1.346 3 3 3s3-1.346 3-3c0-1.302-.839-2.402-2-2.816v-3.537c1.873.746 3.891 1.192 6 1.302v6.235c-1.161.414-2 1.514-2 2.816 0 1.654 1.346 3 3 3s3-1.346 3-3c0-1.302-.839-2.402-2-2.816v-6.235c1.378-.072 2.715-.288 4-.639v.874c-1.161.414-2 1.514-2 2.816 0 1.654 1.346 3 3 3s3-1.346 3-3c0-1.302-.839-2.402-2-2.816v-1.537c3.203-1.275 5.972-3.396 8.045-6.088-.022.145-.045.29-.045.441v16c0 1.654 1.346 3 3 3h10c1.654 0 3-1.346 3-3v-16c0-1.654-1.346-3-3-3zm-22-32c.552 0 1 .449 1 1s-.448 1-1 1-1-.449-1-1 .448-1 1-1zm-14-2c.552 0 1 .449 1 1s-.448 1-1 1-1-.449-1-1 .448-1 1-1zm-20-4h12c.552 0 1 .449 1 1v7h-14v-7c0-.551.448-1 1-1zm-1 11v-1h14v1c0 .551-.448 1-1 1h-12c-.552 0-1-.449-1-1zm3.28 5 .5-2h6.439l.499 2zm17.72 38c-.552 0-1-.449-1-1s.448-1 1-1 1 .449 1 1-.448 1-1 1zm14-2c-.552 0-1-.449-1-1s.448-1 1-1 1 .449 1 1-.448 1-1 1zm23-11v1h-12v-1c0-.551.448-1 1-1h10c.552 0 1 .449 1 1zm-12 3h12v10h-12zm4-18h-2.261c-.539-3.376-1.951-6.462-4.025-9h6.286zm-6-25c0-.551.448-1 1-1h10c.552 0 1 .449 1 1v9h-12zm-1.9 13.2 1.65-2.2h12.5l1.649 2.199c.066.088.101.192.101.301 0 .276-.225.5-.5.5h-7.5-7.5c-.275 0-.5-.224-.5-.5 0-.109.035-.213.1-.3zm-13.1-14.2c.552 0 1 .449 1 1s-.448 1-1 1-1-.449-1-1 .448-1 1-1zm-17 57c0 .551-.448 1-1 1h-10c-.552 0-1-.449-1-1v-16c0-.551.448-1 1-1h10c.552 0 1 .449 1 1zm-1-19h-3v-6h2.261c.369 2.309 1.146 4.48 2.27 6.434-.45-.269-.97-.434-1.531-.434zm18 20c-.552 0-1-.449-1-1s.448-1 1-1 1 .449 1 1-.448 1-1 1zm0-12c-9.374 0-17-7.626-17-17s7.626-17 17-17 17 7.626 17 17-7.626 17-17 17zm18.739-14h2.261v6h-3c-.561 0-1.081.165-1.531.434 1.124-1.954 1.902-4.125 2.27-6.434zm9.261 26h-10c-.552 0-1-.449-1-1v-1h12v1c0 .551-.448 1-1 1z" fill="#000000" data-original="#000000" class=""></path></g></g></g></svg>