<svg xmlns="http://www.w3.org/2000/svg" version="1.1" xmlns:xlink="http://www.w3.org/1999/xlink" xmlns:svgjs="http://svgjs.com/svgjs" width="50" height="50" x="0" y="0" viewBox="0 0 64 64" style="enable-background:new 0 0 512 512" xml:space="preserve" class=""><g><g xmlns="http://www.w3.org/2000/svg" id="Icons"><g><g><g><path d="m56 42.841c1.595.7 2.968 1.806 4 3.185v-32.026c0-1.105-.895-2-2-2h-8v4h6z" fill="#505050" data-original="#505050" class=""></path></g><g><path d="m46.026 44h-8.026-28-2v-28h6v-4h-8c-1.105 0-2 .895-2 2v36c0 1.105.895 2 2 2h36c0-3.273 1.588-6.175 4.026-8z" fill="#505050" data-original="#505050" class=""></path></g></g><g><path d="m8 50v-6-28-2c0-1.105.895-2 2-2h-4c-1.105 0-2 .895-2 2v36c0 1.104.895 2 2 2h4c-1.105 0-2-.896-2-2z" fill="#3c3c3c" data-original="#3c3c3c" class=""></path></g><g><path d="m22 60c2.451-1.226 4-3.731 4-6.472v-1.528h12v1.528c0 2.741 1.549 5.246 4 6.472z" fill="#505050" data-original="#505050" class=""></path></g><g><path d="m30 53.528v-1.528h-4v1.528c0 2.741-1.549 5.246-4 6.472h4c2.451-1.226 4-3.731 4-6.472z" fill="#3c3c3c" data-original="#3c3c3c" class=""></path></g><g><path d="m31.996 50c-1.105 0-2-.895-2-2 0-1.105.895-2 2-2 1.105 0 2 .895 2 2 0 1.105-.895 2-2 2z" fill="#f0f0f0" data-original="#f0f0f0" class=""></path></g><g><path d="m16 34h32v4h-32z" fill="#288cb4" data-original="#288cb4"></path></g><g><path d="m46 10v6h-4-2-18v-6h-6v24h9.515c1.591 0 3.117.632 4.243 1.757l2.242 2.243 2.243-2.243c1.125-1.125 2.651-1.757 4.242-1.757h9.515v-24z" fill="#f0f0f0" data-original="#f0f0f0" class=""></path></g><g><path d="m16 10h4v24h-4z" fill="#d2d2d2" data-original="#d2d2d2" class=""></path></g><g><path d="m31 16v21l1 1 1-1v-21z" fill="#d2d2d2" data-original="#d2d2d2" class=""></path></g><g><path d="m22 20h6v2h-6z" fill="#d2d2d2" data-original="#d2d2d2" class=""></path></g><g><path d="m22 16h6v2h-6z" fill="#d2d2d2" data-original="#d2d2d2" class=""></path></g><g><path d="m22 24h6v2h-6z" fill="#d2d2d2" data-original="#d2d2d2" class=""></path></g><g><path d="m22 28h6v2h-6z" fill="#d2d2d2" data-original="#d2d2d2" class=""></path></g><g><path d="m36 16h6v2h-6z" fill="#d2d2d2" data-original="#d2d2d2" class=""></path></g><g><path d="m36 20h6v2h-6z" fill="#d2d2d2" data-original="#d2d2d2" class=""></path></g><g><path d="m36 24h6v2h-6z" fill="#d2d2d2" data-original="#d2d2d2" class=""></path></g><g><path d="m36 28h6v2h-6z" fill="#d2d2d2" data-original="#d2d2d2" class=""></path></g><g><path d="m42 8h2v6h-2z" fill="#fa6450" data-original="#fa6450"></path></g><g><path d="m24 8h16v6h-16z" fill="#505050" data-original="#505050" class=""></path></g><g><path d="m24 8h2v6h-2z" fill="#3c3c3c" data-original="#3c3c3c" class=""></path></g><g><path d="m20 7.2v1.6l12 3.2 12-3.2v-1.6z" fill="#3c3c3c" data-original="#3c3c3c" class=""></path></g><g><path d="m32 4-12 3.2 12 3.2 12-3.2z" fill="#505050" data-original="#505050" class=""></path></g><g><path d="m52 42c1.422 0 2.774.303 4 .841v-26.841h-6v24h-36v-24h-6v28h2 28 8.026c1.669-1.25 3.733-2 5.974-2z" fill="#64c8f0" data-original="#64c8f0" class=""></path></g><g><circle cx="52" cy="52" fill="#fa6450" r="8" data-original="#fa6450"></circle></g><g><path d="m45.983 52c0-4.082 3.059-7.443 7.009-7.932-.326-.041-.656-.068-.992-.068-4.418 0-8 3.582-8 8s3.582 8 8 8c.336 0 .666-.027.991-.068-3.949-.489-7.008-3.85-7.008-7.932z" fill="#dc4632" data-original="#dc4632"></path></g><g><g><path d="m57.304 51.757c-1.417-1.417-3.301-2.197-5.304-2.197s-3.887.78-5.303 2.197l-.707-.707c1.605-1.605 3.74-2.49 6.01-2.49s4.405.884 6.011 2.49z" fill="#be2814" data-original="#be2814" class=""></path></g></g><g><g><path d="m48.818 53.878-.707-.707c1.039-1.039 2.42-1.611 3.889-1.611s2.851.572 3.889 1.611l-.707.707c-.85-.85-1.979-1.318-3.182-1.318s-2.332.468-3.182 1.318z" fill="#be2814" data-original="#be2814" class=""></path></g></g><g><g><path d="m53.061 56c-.566-.566-1.555-.566-2.121 0l-.707-.707c.943-.944 2.592-.944 3.535 0z" fill="#be2814" data-original="#be2814" class=""></path></g></g></g></g></g></svg>